<svg width="24" height="24" viewBox="0 0 24 24" fill="none" xmlns="http://www.w3.org/2000/svg">
<path d="M14.69 6.70999C14.7827 6.80251 14.8562 6.91239 14.9064 7.03337C14.9566 7.15434 14.9824 7.28402 14.9824 7.41499C14.9824 7.54596 14.9566 7.67564 14.9064 7.79662C14.8562 7.91759 14.7827 8.02748 14.69 8.11999L10.81 12L14.69 15.88C14.877 16.067 14.982 16.3206 14.982 16.585C14.982 16.8494 14.877 17.103 14.69 17.29C14.503 17.477 14.2494 17.582 13.985 17.582C13.7206 17.582 13.467 17.477 13.28 17.29L8.68998 12.7C8.59727 12.6075 8.52373 12.4976 8.47355 12.3766C8.42336 12.2556 8.39753 12.126 8.39753 11.995C8.39753 11.864 8.42336 11.7343 8.47355 11.6134C8.52373 11.4924 8.59727 11.3825 8.68998 11.29L13.28 6.69999C13.66 6.31999 14.3 6.31999 14.69 6.70999Z" fill="#E5BBC9"/>
</svg>
